<?xml version="1.0" encoding="utf-8"?>
<!-- Generator: Adobe Illustrator 19.2.0, SVG Export Plug-In . SVG Version: 6.00 Build 0)  -->
<svg version="1.1" id="logo" xmlns="http://www.w3.org/2000/svg" xmlns:xlink="http://www.w3.org/1999/xlink" x="0px" y="0px"
	 viewBox="0 0 196.7 40.7" style="enable-background:new 0 0 196.7 40.7;" xml:space="preserve">
<style type="text/css">
	.st0{fill:#FFFFFF;}
</style>
<g>
	<path class="st0" d="M46.2,40.7H35.3L32,32.6H13.7l-3,8.1H0L16.4,0h11.7L46.2,40.7z M22.4,9.7l-6,15.8h12.5L22.4,9.7z"/>
	<path class="st0" d="M85.8,0h8.8v40.7H84.5V15.3L73.5,28H72L61,15.2v25.4H50.9V0h8.8l13.1,15.1L85.8,0z"/>
	<path class="st0" d="M120.3,0c14.8,0,22.5,9.2,22.5,20.4c0,11.7-7.4,20.3-23.6,20.3h-16.8V0H120.3z M112.5,33.2h6.6
		c10.2,0,13.2-6.9,13.2-12.9c0-7-3.8-12.9-13.4-12.9h-6.4V33.2z"/>
</g>
<g>
	<polygon class="st0" points="183.9,9.6 162.9,9.6 150.2,-3.1 196.7,-3.1 196.7,43.4 183.9,30.6 	"/>
	<polygon class="st0" points="162.9,30.6 162.9,12.2 149.8,25.4 149.8,43.8 168.2,43.8 181.3,30.6 	"/>
</g>
</svg>
