<?xml version="1.0" encoding="utf-8"?>
<!-- Generator: Adobe Illustrator 19.2.0, SVG Export Plug-In . SVG Version: 6.00 Build 0)  -->
<svg version="1.1" id="Layer_1" xmlns="http://www.w3.org/2000/svg" xmlns:xlink="http://www.w3.org/1999/xlink" x="0px" y="0px"
	 width="318.1px" height="57.2px" viewBox="0 0 318.1 57.2" style="enable-background:new 0 0 318.1 57.2;" xml:space="preserve">
<style type="text/css">
	.st0{fill:#666666;}
	.st1{fill:#666666;stroke:#FFFFFF;stroke-width:0.1759;stroke-miterlimit:10;}
	.st2{fill:#005A9C;}
	.st3{fill:#231F20;stroke:#005A9C;stroke-miterlimit:10;}
</style>
<g>
	<path class="st0" d="M21.5,16.8l5-3.9l7.3,0c2.5,0,3.7-2.9,4-3.7c0.9-2.1,0.1-3.4-1.5-3.4c-0.1,0-10.7,0-10.7,0
		c0,0-8.9,23.4-8.9,23.4l-6.9,0L20.6,1l18.3-0.1c2.9,0,6.4,1,5.8,5.1c-0.2,1.1-0.8,4.2-2.4,6.7c-0.8,1.3-3.9,3.6-4.9,4.1
		c-1,0.5-4.2,0.8-6,0.8l-10.1,0C21.2,17.6,21.5,16.8,21.5,16.8z"/>
	<g>
		<polygon class="st0" points="113.8,0.7 103,29.3 96.6,29.3 107.3,0.7 		"/>
	</g>
	<path class="st0" d="M169.3,0.9c4.2,1.1,4.5,2.9,3.9,6.6c-0.4,2.4-3.8,12.2-5.6,15c-3.2,5-7.3,6.3-9,6.4c-2.2,0.2-11.2,0.3-13.2,0
		c-1.9-0.2-4.9-1.7-4.8-4.8c0.1-3.1,5.2-14.5,6.5-17.2c1.6-3.3,4-4.9,8.1-5.9C158.5,0.2,165-0.2,169.3,0.9z M155.8,6.1
		c-1.7,0.3-3,2.2-3.8,3.9c-0.8,1.8-4.2,9.1-4.2,11.1c-0.1,1.9,0.3,3.1,2.2,3.4c1,0.2,6.3,0.1,7.8-0.2c1.4-0.3,4.1-2.4,5-4.3
		c0.9-1.9,3.4-8.2,3.7-9.7c0.9-4.2-0.3-4-2.3-4.4C161.9,5.4,157.7,5.7,155.8,6.1z"/>
	<path class="st0" d="M138,22.6c-3.2,5-7.3,6.3-9,6.4c-2.3,0.2-11.2,0.3-13.2,0c-1.9-0.2-4.9-1.7-4.8-4.9c0.1-3.1,5.2-14.5,6.5-17.2
		c1.6-3.3,4-4.9,8.1-5.9c2.8-0.7,10.3-1.3,14.3,0.3c5.1,2.1,3.2,7.3,3.2,7.5l-6,0c0.4-1.6-0.5-2.7-2.1-3.1c-2.2-0.5-6.9,0-8.8,0.3
		c-1.7,0.3-3,2.2-3.8,3.9c-0.8,1.8-4.2,9.1-4.2,11.1c-0.1,1.9,0.3,3.1,2.2,3.4c1,0.2,6.3,0.1,7.8-0.2c0.9-0.2,2-0.7,3.1-1.8
		L138,22.6z"/>
	<path class="st0" d="M64.8,29l-26.3,0.1L49.2,0.9L72,0.8L70,5.8l-16.2,0l-4.1,10.8l4.7-3.6l12.4,0L65,17.5l-15.6,0l-2.8,7.2
		l17.6-0.1c1.5,0,2.8-1.4,3.1-2c0.3-0.7,8.3-21.8,8.3-21.8l16-0.1c2,0,6.8,1.6,6.5,5.6c-0.1,2.7-0.6,4.3-1.9,6.8
		c-1.8,3.6-5.8,4.2-7.1,4.2l-6.4,0L93.4,29l-6.3,0L76.3,17.3l5.4-4.3l6.1,0c1.5,0,2.9-0.5,4.1-2.9c1.9-3.7-0.5-4.4-1.1-4.4l-10.9,0
		l-7.2,18.8C71.3,28.3,67.2,29,64.8,29z"/>
	<path class="st0" d="M203.2,3.3c0,0,1.6-1.8,3.1-2.5c1.4-0.7,6.2-0.9,7.4,0c1.1,0.8,1.3,2.1,0.9,3.2C214.2,5,205.1,29,205.1,29
		l-6,0c0,0,7.4-19.5,8-21.1c0.6-1.6,0-1.6-0.9-0.4c-0.8,1.1-15.6,21.6-15.6,21.6l-5.2,0c0,0-0.5-19.9-0.5-21c0-1.5-1-1.8-1.5,0.1
		c-0.4,1.5-7.9,21-7.9,21l-5.6,0l9.4-24.7c0,0,1-2.8,2.9-3.9c1.2-0.7,5.5-0.7,6.7,0.1c1.3,0.8,1.4,3.8,1.4,3.8l0.3,16.7L203.2,3.3z"
		/>
</g>
<g>
	<path class="st1" d="M218.5,0.8c0.3,0,0.6,0.1,0.9,0.2c0.3,0.1,0.5,0.3,0.8,0.5c0.2,0.2,0.4,0.5,0.5,0.8c0.1,0.3,0.2,0.6,0.2,0.9
		c0,0.3-0.1,0.6-0.2,0.9c-0.1,0.3-0.3,0.5-0.5,0.8c-0.2,0.2-0.5,0.4-0.8,0.5c-0.3,0.1-0.6,0.2-0.9,0.2c-0.3,0-0.6-0.1-0.9-0.2
		c-0.3-0.1-0.5-0.3-0.8-0.5c-0.2-0.2-0.4-0.5-0.5-0.8c-0.1-0.3-0.2-0.6-0.2-0.9c0-0.3,0.1-0.6,0.2-0.9c0.1-0.3,0.3-0.6,0.5-0.8
		c0.2-0.2,0.5-0.4,0.8-0.5C217.9,0.9,218.2,0.8,218.5,0.8z M220.7,3.2c0-0.3-0.1-0.6-0.2-0.8c-0.1-0.3-0.3-0.5-0.5-0.7
		c-0.2-0.2-0.4-0.4-0.7-0.5c-0.3-0.1-0.5-0.2-0.8-0.2c-0.3,0-0.6,0.1-0.8,0.2c-0.3,0.1-0.5,0.3-0.7,0.5c-0.2,0.2-0.4,0.4-0.5,0.7
		c-0.1,0.3-0.2,0.5-0.2,0.8c0,0.3,0.1,0.6,0.2,0.8c0.1,0.3,0.3,0.5,0.5,0.7c0.2,0.2,0.4,0.4,0.7,0.5c0.3,0.1,0.5,0.2,0.8,0.2
		c0.3,0,0.6-0.1,0.8-0.2c0.3-0.1,0.5-0.3,0.7-0.5c0.2-0.2,0.4-0.4,0.5-0.7C220.6,3.8,220.7,3.5,220.7,3.2z M218.6,1.8
		c0.4,0,0.7,0.1,0.9,0.2c0.2,0.1,0.3,0.3,0.3,0.6c0,0.2-0.1,0.4-0.2,0.5c-0.1,0.1-0.3,0.2-0.5,0.2l0.6,1.3h-0.4l-0.6-1.2H218v1.2
		h-0.4V1.8H218.6z M218.5,2H218v1h0.6c0.3,0,0.5,0,0.7-0.1c0.1-0.1,0.2-0.2,0.2-0.4c0-0.2-0.1-0.3-0.2-0.4C219,2.1,218.8,2,218.5,2z
		"/>
</g>
<g>
	<path class="st2" d="M233,7.2l0-1.4h-2.7l-1.2,1.4h-1.5l5.4-6.4h1.4l0.2,6.4H233z M232.9,2.7l-1.6,1.9h1.6L232.9,2.7z"/>
	<path class="st2" d="M245.4,1.4c0.3,0.4,0.3,1,0,1.8s-0.8,1.4-1.4,1.7c-0.6,0.4-1.4,0.6-2.3,0.6h-0.9L240,7.2h-1.4l2.6-6.4h2.3
		C244.5,0.8,245.1,1,245.4,1.4z M243.3,3.9c0.2-0.2,0.5-0.5,0.6-0.8c0.2-0.4,0.1-0.6,0-0.8C243.8,2.1,243.4,2,243,2h-0.8l-0.9,2.2h1
		C242.7,4.2,243.1,4.1,243.3,3.9z"/>
	<path class="st2" d="M252.2,2.9c-0.4,1-1.1,1.7-2,2l0.7,2.3h-1.8l-0.6-2h-1l-0.8,2h-1.4l2.6-6.4h2.4c1,0,1.6,0.2,1.9,0.5
		S252.5,2.2,252.2,2.9z M250.2,3.7c0.2-0.2,0.4-0.4,0.6-0.8c0.1-0.3,0.1-0.6,0-0.7c-0.1-0.1-0.4-0.2-0.9-0.2h-1.1l-0.8,1.9h1
		C249.6,3.9,250,3.9,250.2,3.7z"/>
	<path class="st2" d="M258.1,6.3c-0.9,0.6-1.8,1-2.8,1c-0.9,0-1.6-0.3-2-1c-0.4-0.6-0.4-1.4,0-2.4c0.4-0.9,1-1.7,1.9-2.4
		c0.9-0.6,1.8-1,2.8-1c0.9,0,1.6,0.3,2,1c0.4,0.6,0.4,1.4,0,2.4C259.7,4.9,259,5.7,258.1,6.3z M258.6,4c0.2-0.6,0.2-1.1,0-1.5
		c-0.2-0.4-0.6-0.6-1.1-0.6c-0.5,0-1.1,0.2-1.6,0.6c-0.5,0.4-0.9,0.9-1.1,1.5c-0.2,0.6-0.2,1.1,0,1.5c0.2,0.4,0.6,0.6,1.1,0.6
		c0.5,0,1.1-0.2,1.6-0.6C258,5,258.4,4.6,258.6,4z"/>
	<path class="st2" d="M267.6,1.7c0.4,0.6,0.4,1.3,0,2.3c-0.4,1-1,1.8-1.9,2.4c-0.8,0.6-1.9,0.9-3.1,0.9h-2.2l2.6-6.4h2.3
		C266.4,0.8,267.2,1.1,267.6,1.7z M265,5.5c0.5-0.3,0.9-0.8,1.1-1.4c0.3-0.6,0.3-1.1,0.1-1.5s-0.7-0.5-1.4-0.5h-0.8L262.3,6h0.9
		C263.9,6,264.5,5.8,265,5.5z"/>
	<path class="st2" d="M270.3,5.6c0.1,0.3,0.4,0.4,0.8,0.4s0.8-0.1,1.1-0.4c0.4-0.3,0.6-0.7,0.8-1.2l1.4-3.5h1.4l-1.5,3.6
		c-0.4,0.9-0.9,1.6-1.6,2.1c-0.7,0.5-1.5,0.7-2.3,0.7s-1.4-0.3-1.7-0.8c-0.3-0.5-0.3-1.2,0.1-2.1l1.5-3.6h1.4l-1.4,3.5
		C270.2,4.9,270.2,5.3,270.3,5.6z"/>
	<path class="st2" d="M278.7,6c0.7,0,1.4-0.3,2.1-0.8l0.5,0.9c-1.1,0.8-2.1,1.2-3.1,1.2c-1,0-1.7-0.3-2.1-0.9
		c-0.4-0.6-0.4-1.4,0-2.4c0.4-1,1-1.7,1.9-2.4c0.9-0.6,1.8-1,2.8-1c1.1,0,1.8,0.4,2.2,1.2l-1.3,1c-0.2-0.6-0.7-0.8-1.3-0.8
		c-0.5,0-1.1,0.2-1.6,0.5c-0.5,0.4-0.9,0.8-1.2,1.4c-0.2,0.6-0.3,1.1,0,1.4C277.9,5.8,278.2,6,278.7,6z"/>
	<path class="st2" d="M287.3,2.1l-2.1,5.2h-1.4l2.1-5.2H284l0.5-1.2h5.1l-0.5,1.2H287.3z"/>
	<path class="st2" d="M291.4,7.2l2.6-6.4h1.4L293.3,6h2.7l-0.5,1.3H291.4z"/>
	<path class="st2" d="M299.7,0.8h1.4l-2.6,6.4h-1.4L299.7,0.8z"/>
	<path class="st2" d="M307.6,0.8h1.4l-2.6,6.4H305l-1.4-4l-1.6,4h-1.4l2.6-6.4h1.3l1.5,4.1L307.6,0.8z"/>
	<path class="st2" d="M315.7,0.8l-0.5,1.3H312l-0.5,1.3h2.9l-0.5,1.2H311L310.4,6h3.3l-0.5,1.3h-4.7l2.6-6.4H315.7z"/>
	<path class="st2" d="M229.7,17.4c-0.9,0.6-1.8,1-2.8,1c-0.9,0-1.6-0.3-2-1c-0.4-0.6-0.4-1.4,0-2.4c0.4-0.9,1-1.7,1.9-2.4
		c0.9-0.6,1.8-1,2.8-1c0.9,0,1.6,0.3,2,1c0.4,0.6,0.4,1.4,0,2.4C231.2,15.9,230.6,16.7,229.7,17.4z M230.2,15c0.2-0.6,0.2-1.1,0-1.5
		c-0.2-0.4-0.6-0.6-1.1-0.6s-1.1,0.2-1.6,0.6c-0.5,0.4-0.9,0.9-1.1,1.5c-0.2,0.6-0.2,1.1,0,1.5c0.2,0.4,0.6,0.6,1.1,0.6
		s1.1-0.2,1.6-0.6C229.5,16.1,229.9,15.6,230.2,15z"/>
	<path class="st2" d="M239,11.8l-0.5,1.3h-3l-0.6,1.4h2.8l-0.5,1.3h-2.8l-1,2.5H232l2.6-6.4H239z"/>
	<path class="st2" d="M248.1,12.7c0.4,0.6,0.4,1.3,0,2.3c-0.4,1-1,1.8-1.9,2.4c-0.8,0.6-1.9,0.9-3.1,0.9h-2.2l2.6-6.4h2.3
		C247,11.8,247.7,12.1,248.1,12.7z M245.5,16.5c0.5-0.3,0.9-0.8,1.1-1.4c0.3-0.6,0.3-1.1,0.1-1.5c-0.2-0.3-0.7-0.5-1.4-0.5h-0.8
		l-1.6,3.9h0.9C244.4,17,245,16.8,245.5,16.5z"/>
	<path class="st2" d="M251.1,11.8h1.4l-2.6,6.4h-1.4L251.1,11.8z"/>
	<path class="st2" d="M257.7,17.4c-0.9,0.6-1.8,1-2.8,1c-0.9,0-1.6-0.3-2-1c-0.4-0.6-0.4-1.4,0-2.4c0.4-0.9,1-1.7,1.9-2.4
		c0.9-0.6,1.8-1,2.8-1c0.9,0,1.6,0.3,2,1c0.4,0.6,0.4,1.4,0,2.4C259.2,15.9,258.6,16.7,257.7,17.4z M258.2,15c0.2-0.6,0.2-1.1,0-1.5
		c-0.2-0.4-0.6-0.6-1.1-0.6c-0.5,0-1.1,0.2-1.6,0.6c-0.5,0.4-0.9,0.9-1.1,1.5c-0.2,0.6-0.2,1.1,0,1.5c0.2,0.4,0.6,0.6,1.1,0.6
		c0.5,0,1.1-0.2,1.6-0.6C257.5,16.1,257.9,15.6,258.2,15z"/>
	<path class="st2" d="M267.2,12.7c0.4,0.6,0.4,1.3,0,2.3c-0.4,1-1,1.8-1.9,2.4c-0.8,0.6-1.9,0.9-3.1,0.9H260l2.6-6.4h2.3
		C266,11.8,266.8,12.1,267.2,12.7z M264.5,16.5c0.5-0.3,0.9-0.8,1.1-1.4c0.3-0.6,0.3-1.1,0.1-1.5c-0.2-0.3-0.7-0.5-1.4-0.5h-0.8
		l-1.6,3.9h0.9C263.5,17,264.1,16.8,264.5,16.5z"/>
	<path class="st2" d="M274.7,11.8l-0.5,1.3H271l-0.5,1.3h2.9l-0.5,1.2H270l-0.5,1.3h3.3l-0.5,1.3h-4.7l2.6-6.4H274.7z"/>
	<path class="st2" d="M277.6,13.1c-0.2,0.1-0.3,0.3-0.4,0.5c-0.1,0.2-0.1,0.3,0.1,0.4c0.1,0.1,0.5,0.2,1,0.4
		c0.5,0.1,0.9,0.4,1.1,0.7c0.2,0.3,0.2,0.7,0,1.3c-0.2,0.6-0.6,1-1.2,1.4c-0.6,0.4-1.2,0.5-1.9,0.5c-1,0-1.8-0.4-2.3-1.1l1.3-1
		c0.4,0.6,1,0.9,1.5,0.9c0.3,0,0.5-0.1,0.7-0.2c0.2-0.1,0.3-0.3,0.4-0.5c0.1-0.2,0.1-0.3-0.1-0.5c-0.1-0.1-0.4-0.2-0.8-0.3
		c-0.7-0.2-1.1-0.4-1.4-0.7c-0.2-0.3-0.2-0.7,0-1.3c0.2-0.6,0.7-1.1,1.2-1.4c0.6-0.3,1.2-0.5,1.8-0.5c0.4,0,0.8,0.1,1.2,0.2
		c0.4,0.1,0.7,0.4,0.9,0.6l-1.2,1c-0.4-0.4-0.9-0.6-1.5-0.6C278,12.9,277.7,13,277.6,13.1z"/>
	<path class="st2" d="M222.1,22.9h1.4l-2.6,6.4h-1.4L222.1,22.9z"/>
	<path class="st2" d="M230,22.9h1.4l-2.6,6.4h-1.4l-1.4-4l-1.6,4h-1.4l2.6-6.4h1.3l1.5,4.1L230,22.9z"/>
	<path class="st2" d="M234.3,28c0.7,0,1.4-0.3,2.1-0.8l0.5,0.9c-1.1,0.8-2.1,1.2-3.1,1.2c-1,0-1.7-0.3-2.1-0.9
		c-0.4-0.6-0.4-1.4,0-2.4c0.4-1,1-1.7,1.9-2.4c0.9-0.6,1.8-1,2.8-1c1.1,0,1.8,0.4,2.2,1.2l-1.3,1c-0.2-0.6-0.7-0.8-1.3-0.8
		c-0.5,0-1.1,0.2-1.6,0.5c-0.5,0.4-0.9,0.8-1.2,1.4c-0.2,0.6-0.3,1.1,0,1.4C233.5,27.8,233.8,28,234.3,28z"/>
	<path class="st2" d="M243.7,28.4c-0.9,0.6-1.8,1-2.8,1c-0.9,0-1.6-0.3-2-1c-0.4-0.6-0.4-1.4,0-2.4c0.4-0.9,1-1.7,1.9-2.4
		c0.9-0.6,1.8-1,2.8-1c0.9,0,1.6,0.3,2,1c0.4,0.6,0.4,1.4,0,2.4C245.2,27,244.6,27.8,243.7,28.4z M244.1,26c0.2-0.6,0.2-1.1,0-1.5
		s-0.6-0.6-1.1-0.6s-1.1,0.2-1.6,0.6c-0.5,0.4-0.9,0.9-1.1,1.5c-0.2,0.6-0.2,1.1,0,1.5s0.6,0.6,1.1,0.6s1.1-0.2,1.6-0.6
		S243.9,26.6,244.1,26z"/>
	<path class="st2" d="M252.9,25c-0.4,1-1.1,1.7-2,2l0.7,2.3h-1.8l-0.6-2h-1l-0.8,2H246l2.6-6.4h2.4c1,0,1.6,0.2,1.9,0.5
		C253.2,23.7,253.2,24.2,252.9,25z M250.9,25.7c0.2-0.2,0.4-0.4,0.6-0.8c0.1-0.3,0.1-0.6,0-0.7c-0.1-0.1-0.4-0.2-0.9-0.2h-1.1
		l-0.8,1.9h1C250.3,26,250.6,25.9,250.9,25.7z"/>
	<path class="st2" d="M259.9,23.4c0.3,0.4,0.3,1,0,1.8c-0.3,0.8-0.8,1.4-1.4,1.7c-0.6,0.4-1.4,0.6-2.3,0.6h-0.9l-0.7,1.8h-1.4
		l2.6-6.4h2.3C259,22.9,259.6,23,259.9,23.4z M257.8,26c0.2-0.2,0.5-0.5,0.6-0.8c0.2-0.4,0.1-0.6,0-0.8c-0.2-0.2-0.5-0.2-0.9-0.2
		h-0.8l-0.9,2.2h1C257.2,26.2,257.6,26.1,257.8,26z"/>
	<path class="st2" d="M265.5,28.4c-0.9,0.6-1.8,1-2.8,1c-0.9,0-1.6-0.3-2-1c-0.4-0.6-0.4-1.4,0-2.4c0.4-0.9,1-1.7,1.9-2.4
		c0.9-0.6,1.8-1,2.8-1c0.9,0,1.6,0.3,2,1c0.4,0.6,0.4,1.4,0,2.4C267.1,27,266.4,27.8,265.5,28.4z M266,26c0.2-0.6,0.2-1.1,0-1.5
		s-0.6-0.6-1.1-0.6s-1.1,0.2-1.6,0.6c-0.5,0.4-0.9,0.9-1.1,1.5c-0.2,0.6-0.2,1.1,0,1.5s0.6,0.6,1.1,0.6s1.1-0.2,1.6-0.6
		S265.8,26.6,266,26z"/>
	<path class="st2" d="M274.8,25c-0.4,1-1.1,1.7-2,2l0.7,2.3h-1.8l-0.6-2h-1l-0.8,2h-1.4l2.6-6.4h2.4c1,0,1.6,0.2,1.9,0.5
		C275.1,23.7,275.1,24.2,274.8,25z M272.7,25.7c0.2-0.2,0.4-0.4,0.6-0.8c0.1-0.3,0.1-0.6,0-0.7c-0.1-0.1-0.4-0.2-0.9-0.2h-1.1
		l-0.8,1.9h1C272.1,26,272.5,25.9,272.7,25.7z"/>
	<path class="st2" d="M279.5,29.3l0-1.4h-2.7l-1.2,1.4h-1.5l5.4-6.4h1.4l0.2,6.4H279.5z M279.4,24.8l-1.6,1.9h1.6L279.4,24.8z"/>
	<path class="st2" d="M286.6,24.1l-2.1,5.2h-1.4l2.1-5.2h-1.8l0.5-1.2h5.1l-0.5,1.2H286.6z"/>
	<path class="st2" d="M295.1,22.9l-0.5,1.3h-3.2l-0.5,1.3h2.9l-0.5,1.2h-2.9l-0.5,1.3h3.3l-0.5,1.3h-4.7l2.6-6.4H295.1z"/>
	<path class="st2" d="M301.5,23.7c0.4,0.6,0.4,1.3,0,2.3c-0.4,1-1,1.8-1.9,2.4c-0.8,0.6-1.9,0.9-3.1,0.9h-2.2l2.6-6.4h2.3
		C300.3,22.9,301.1,23.1,301.5,23.7z M298.9,27.5c0.5-0.3,0.9-0.8,1.1-1.4c0.3-0.6,0.3-1.1,0.1-1.5c-0.2-0.3-0.7-0.5-1.4-0.5h-0.8
		l-1.6,3.9h0.9C297.8,28,298.4,27.8,298.9,27.5z"/>
</g>
<g>
	<path class="st2" d="M13.3,45.3l-1,2.3H6.5l-1,2.4h5.3l-0.9,2.2H4.6l-1,2.4h6l-0.9,2.3H0l4.8-11.8H13.3z"/>
	<path class="st2" d="M24.9,45.3h2.6l-4.8,11.8h-2.6l-2.6-7.4l-3,7.4h-2.6l4.8-11.8h2.5l2.7,7.6L24.9,45.3z"/>
	<path class="st2" d="M34.8,57.1l-0.1-2.5h-4.9l-2.1,2.5h-2.8l9.9-11.8h2.5l0.3,11.8H34.8z M34.6,48.8l-2.9,3.4h2.9L34.6,48.8z"/>
	<path class="st2" d="M44.9,57.1h-5.1l4.8-11.8h4.6c0.8,0,1.4,0.1,1.9,0.3c0.5,0.2,0.8,0.4,1,0.8c0.3,0.6,0.3,1.3,0,2.1
		c-0.4,0.9-1,1.6-1.7,2.1c-0.3,0.2-0.4,0.3-0.5,0.3c-0.1,0-0.3,0.1-0.5,0.2c0.7,0.2,1.1,0.5,1.3,1c0.2,0.5,0.2,1.1-0.1,1.9
		c-0.3,0.8-0.9,1.5-1.7,2.2C47.8,56.7,46.5,57.1,44.9,57.1z M43.3,54.9h1.8c0.8,0,1.4-0.1,1.8-0.3c0.5-0.2,0.8-0.5,1-1.1
		c0.2-0.5,0.2-0.9-0.2-1.1c-0.3-0.2-0.9-0.3-1.8-0.3h-1.5L43.3,54.9z M45.3,50.1h1.2c0.7,0,1.3-0.1,1.7-0.2c0.4-0.2,0.7-0.5,0.9-1
		c0.2-0.5,0.2-0.9-0.1-1c-0.3-0.2-0.8-0.3-1.5-0.3h-1.3L45.3,50.1z"/>
	<path class="st2" d="M52.2,57.1L57,45.3h2.6l-3.8,9.4h5l-1,2.3H52.2z"/>
	<path class="st2" d="M67.4,45.3H70l-4.8,11.8h-2.6L67.4,45.3z"/>
	<path class="st2" d="M82,45.3h2.6l-4.8,11.8h-2.6l-2.6-7.4l-3,7.4H69l4.8-11.8h2.5l2.7,7.6L82,45.3z"/>
	<path class="st2" d="M93.6,51.1h2.6l-1.7,4.2c-1.7,1.3-3.6,2-5.6,2c-1.7,0-2.9-0.6-3.6-1.7c-0.7-1.1-0.7-2.6,0-4.3s1.9-3.2,3.6-4.4
		c1.7-1.2,3.3-1.7,5-1.7c1.7,0,2.9,0.6,3.7,1.7l-2.2,2c-0.3-0.5-0.7-0.8-1.1-1c-0.4-0.2-0.8-0.3-1.3-0.3c-1,0-2,0.3-2.9,1
		c-1,0.7-1.7,1.6-2.1,2.7c-0.5,1.1-0.5,2-0.1,2.7c0.4,0.7,1,1,1.9,1s1.7-0.2,2.5-0.5L93.6,51.1z"/>
	<path class="st2" d="M108.8,47.7c-0.3,0.2-0.6,0.5-0.7,0.8c-0.1,0.3-0.1,0.6,0.1,0.8c0.2,0.2,0.8,0.4,1.8,0.7
		c1,0.3,1.7,0.7,2.1,1.2c0.4,0.5,0.4,1.3-0.1,2.4c-0.4,1.1-1.2,1.9-2.2,2.6c-1.1,0.7-2.2,1-3.5,1c-1.9,0-3.3-0.7-4.2-2.1l2.3-1.9
		c0.8,1.1,1.8,1.7,2.8,1.7c0.5,0,0.9-0.1,1.3-0.3c0.4-0.2,0.6-0.5,0.8-0.8c0.1-0.4,0.1-0.6-0.1-0.8c-0.2-0.2-0.7-0.4-1.5-0.6
		c-1.2-0.3-2.1-0.7-2.5-1.3c-0.4-0.5-0.4-1.3,0.1-2.5c0.5-1.1,1.2-2,2.3-2.6c1-0.6,2.2-0.9,3.4-0.9c0.8,0,1.5,0.1,2.2,0.4
		c0.7,0.3,1.2,0.7,1.6,1.1l-2.1,1.9c-0.7-0.8-1.6-1.2-2.7-1.2C109.6,47.4,109.2,47.5,108.8,47.7z"/>
	<path class="st2" d="M127.1,45.3l-1,2.3h-5.9l-1,2.4h5.3l-0.9,2.2h-5.3l-1,2.4h6l-0.9,2.3h-8.7l4.8-11.8H127.1z"/>
	<path class="st2" d="M138.4,49.2c-0.8,1.9-2,3.1-3.7,3.6l1.3,4.2h-3.2l-1.1-3.7h-1.8l-1.5,3.7h-2.6l4.8-11.8h4.5
		c1.8,0,3,0.3,3.5,0.9C139,46.9,139,47.9,138.4,49.2z M134.7,50.6c0.4-0.3,0.8-0.8,1.1-1.4c0.3-0.6,0.3-1.1,0-1.3
		c-0.2-0.2-0.8-0.4-1.6-0.4h-2l-1.4,3.5h1.9C133.6,51.1,134.2,50.9,134.7,50.6z"/>
	<path class="st2" d="M143.5,45.3h2.6l-4.8,11.8h-2.6L143.5,45.3z"/>
	<path class="st2" d="M153.5,57.1l-0.1-2.5h-4.9l-2.1,2.5h-2.8l9.9-11.8h2.5l0.3,11.8H153.5z M153.3,48.8l-2.9,3.4h2.9L153.3,48.8z"
		/>
	<path class="st2" d="M158.4,57.1l4.8-11.8h2.6l-3.8,9.4h5l-1,2.3H158.4z"/>
	<path class="st2" d="M180.5,54.8c1.3,0,2.6-0.5,3.8-1.5l1,1.7c-1.9,1.5-3.8,2.3-5.6,2.3c-1.8,0-3.1-0.6-3.8-1.7
		c-0.7-1.1-0.7-2.6,0-4.3s1.9-3.2,3.6-4.4c1.7-1.2,3.4-1.7,5.1-1.7c1.9,0,3.2,0.7,3.9,2.2l-2.4,1.8c-0.4-1-1.2-1.5-2.5-1.5
		c-1,0-2,0.3-2.9,1c-1,0.6-1.7,1.5-2.1,2.6c-0.4,1.1-0.5,2-0.1,2.6C178.9,54.4,179.5,54.8,180.5,54.8z"/>
	<path class="st2" d="M197.6,55.5c-1.7,1.2-3.4,1.7-5.1,1.7c-1.7,0-3-0.6-3.7-1.7s-0.7-2.6,0-4.3c0.7-1.7,1.9-3.2,3.5-4.3
		c1.7-1.2,3.4-1.7,5.1-1.7c1.7,0,3,0.6,3.7,1.7s0.7,2.6,0,4.3C200.4,52.9,199.2,54.3,197.6,55.5z M198.4,51.1c0.4-1,0.5-1.9,0.1-2.7
		c-0.4-0.7-1-1.1-2-1.1s-2,0.4-2.9,1.1c-1,0.7-1.7,1.6-2.1,2.7c-0.4,1-0.5,1.9-0.1,2.7c0.4,0.7,1.1,1.1,2,1.1s2-0.4,2.9-1.1
		C197.3,53.1,198,52.2,198.4,51.1z"/>
	<path class="st2" d="M214.8,45.3h2.6l-4.8,11.8H210l-2.6-7.4l-3,7.4h-2.6l4.8-11.8h2.5l2.7,7.6L214.8,45.3z"/>
	<path class="st2" d="M229.3,45.3h2.6l-4.8,11.8h-2.6l-2.6-7.4l-3,7.4h-2.6l4.8-11.8h2.5l2.7,7.6L229.3,45.3z"/>
	<path class="st2" d="M244.2,45.3l-1,2.3h-5.9l-1,2.4h5.3l-0.9,2.2h-5.3l-1,2.4h6l-0.9,2.3h-8.7l4.8-11.8H244.2z"/>
	<path class="st2" d="M249.1,54.8c1.3,0,2.6-0.5,3.8-1.5l1,1.7c-1.9,1.5-3.8,2.3-5.6,2.3s-3.1-0.6-3.8-1.7c-0.7-1.1-0.7-2.6,0-4.3
		s1.9-3.2,3.6-4.4c1.7-1.2,3.4-1.7,5.1-1.7c1.9,0,3.2,0.7,3.9,2.2l-2.4,1.8c-0.4-1-1.2-1.5-2.5-1.5c-1,0-2,0.3-2.9,1
		c-1,0.6-1.7,1.5-2.1,2.6c-0.4,1.1-0.5,2-0.1,2.6C247.5,54.4,248.1,54.8,249.1,54.8z"/>
	<path class="st2" d="M264.7,47.6l-3.9,9.5h-2.6l3.9-9.5h-3.3l0.9-2.3h9.3l-0.9,2.3H264.7z"/>
	<path class="st2" d="M271.7,45.3h2.6l-4.8,11.8h-2.6L271.7,45.3z"/>
	<path class="st2" d="M279.4,52.8l6-7.5h2.8l-9.5,11.8h-2.2l0.1-11.8h2.8L279.4,52.8z"/>
	<path class="st2" d="M290.5,45.3h2.6l-4.8,11.8h-2.6L290.5,45.3z"/>
	<path class="st2" d="M300.9,47.6l-3.9,9.5h-2.6l3.9-9.5H295l0.9-2.3h9.3l-0.9,2.3H300.9z"/>
	<path class="st2" d="M308.2,57.1h-2.6l1.9-4.6l-1.2-7.1h2.8l0.8,4.4l4.3-4.4h2.8l-7,7.1L308.2,57.1z"/>
</g>
<line class="st3" x1="6.9" y1="37.8" x2="318.1" y2="37.8"/>
</svg>
