<?xml version="1.0" encoding="utf-8"?>
<!-- Generator: Adobe Illustrator 19.2.0, SVG Export Plug-In . SVG Version: 6.00 Build 0)  -->
<svg version="1.1" id="Layer_1" xmlns="http://www.w3.org/2000/svg" xmlns:xlink="http://www.w3.org/1999/xlink" x="0px" y="0px"
	 width="146.4px" height="28.3px" viewBox="0 0 146.4 28.3" style="enable-background:new 0 0 146.4 28.3;" xml:space="preserve">
<style type="text/css">
	.st0{fill:#FFFFFF;}
	.st1{fill-rule:evenodd;clip-rule:evenodd;fill:#FFFFFF;}
</style>
<path class="st0" d="M120.4,21.5c2.2,1,4.4,1.4,7.9,1.4c2.7,0,5.2-0.5,5.2-2.7c0-5.1-15-1.9-15-11.8c0-6.6,7.5-8.4,13.8-8.4
	c3,0,6.6,0.5,8.8,1.1l-2.2,5.2c-2.3-0.7-3.5-0.9-5.9-0.9c-2.1,0-5.7,0.2-5.7,2.5c0,4.4,15,1.5,15,11.3c0,7.1-6.9,9-14,9
	c-3,0-6.6-0.4-9.5-1.2"/>
<path class="st0" d="M105.3,22.7v-6.2h13.1v-5.2h-13.1V5.6h13.1V0.5H96.8v8.8c-2.1-6.8-8.9-8.8-18.1-8.8H67.1l0,5l8.5,8.7V5.9h3.3
	c6.2,0,9.9,2.8,9.9,8.3c0,5.4-3.5,8.3-9.9,8.3h-3.3l0-8.3l-8.4,8.6l0,5.1h11.5c9,0,16-2.5,18.1-9.2v9.2h21.6v-5.2"/>
<path class="st1" d="M46.2,15c0.2,4.2,2.3,7.9,7.2,7.9c4.8,0,6.9-3.7,7.2-7.9h8.7c-0.4,8.2-5.9,13.3-15.9,13.3
	c-8.3,0-13.8-3.8-15.2-9.8v9.3h-8.5v-9.3c-2.1,6.8-9.1,9.3-18.1,9.3H0V15h8.5v7.4h3.3c6,0,9.5-2.5,9.8-7.4"/>
<path class="st1" d="M46.2,13.3c0.2-4.3,2.3-7.8,7.2-7.8c4.8,0,6.9,3.5,7.2,7.8h8.7C68.9,5,63.5,0,53.4,0C45,0,39.9,3.5,38.1,9.3
	V0.5h-8.5v8.9c-2-6.8-8.9-8.9-18.1-8.9H0v12.8h8.5V5.9h3.3c5.8,0,9.4,2.5,9.8,7.4"/>
<path class="st0" d="M146.4,26.1c0,1.1-0.9,1.9-1.9,1.9c-1.1,0-2-0.8-2-1.9c0-1.1,0.9-1.9,2-1.9C145.6,24.2,146.4,25,146.4,26.1
	 M143,26.1c0,0.8,0.6,1.5,1.5,1.5c0.8,0,1.4-0.7,1.4-1.5c0-0.8-0.6-1.5-1.5-1.5C143.7,24.6,143,25.2,143,26.1z M144.2,27h-0.4v-1.9
	c0.2,0,0.4-0.1,0.7-0.1c0.4,0,0.5,0.1,0.6,0.2c0.1,0.1,0.2,0.2,0.2,0.4c0,0.2-0.2,0.4-0.4,0.4v0c0.2,0.1,0.3,0.2,0.3,0.5
	c0.1,0.3,0.1,0.4,0.1,0.5H145c-0.1-0.1-0.1-0.2-0.1-0.5c0-0.2-0.2-0.3-0.4-0.3h-0.2V27z M144.2,26h0.2c0.2,0,0.4-0.1,0.4-0.3
	c0-0.2-0.1-0.3-0.4-0.3c-0.1,0-0.2,0-0.2,0V26z"/>
</svg>
