<?xml version="1.0" encoding="utf-8"?>
<!-- Generator: Adobe Illustrator 18.0.0, SVG Export Plug-In . SVG Version: 6.00 Build 0)  -->
<!DOCTYPE svg PUBLIC "-//W3C//DTD SVG 1.1//EN" "http://www.w3.org/Graphics/SVG/1.1/DTD/svg11.dtd">
<svg version="1.1" id="Layer_1" xmlns="http://www.w3.org/2000/svg" xmlns:xlink="http://www.w3.org/1999/xlink" x="0px" y="0px"
	 viewBox="10.9 152.9 938.4 182.3" enable-background="new 10.9 152.9 938.4 182.3" xml:space="preserve">
<g>
	<path fill="#FFFFFF" d="M449.6,154.6h-28.8c0,0-3.4,2.2-3.4,7.3c0,6.2,3.4,7.6,3.4,7.6h25.6c37.1,0,60.4,24.8,60.4,73.5
		c0,52.5-23,75.3-63.8,75.3h-16.5c-2.6,0-4.5-3.1-4.6-4.6c0-9.8-0.1-71.3-0.1-76.5c0-25.3-17.3-39.2-45.4-39.2
		c-18.9,0-32.4,8.5-40,22.9c0-4.7,0-13.4,0-15.9s-1.5-3.7-3.6-3.7s-47.5,0-47.5,0s-3.1,2.7-3.1,7.6c0,5.3,3.1,7.3,3.1,7.3
		s7.3,0,10.6,0c2.8,0,5.8,3.1,5.8,6.5c0,2.8,0,91,0,91c0,1.9-2.6,4.3-4.4,4.3h-10.2l-4.7,13c30.9,0,67.8,0.1,67.8,0.1
		s2.4-2.2,2.4-6.9c0-4.4-2.3-6.3-2.3-6.3h-8c-2.4,0-4.2-2-4.2-4v-70.8c6.7-18.1,19.6-28.8,30.3-28.8c10.1,0,16.5,7.6,16.5,19
		c0,5.9-0.1,69.3-0.1,79.7c0,2.9-2.1,5-4,5h-9.6c0,0-2.7,1.9-2.7,6.3c0,4.6,2.7,6.9,2.7,6.9h79.7c79.4,0,99.9-47.6,99.9-88.2
		C551.1,179.2,506.8,154.6,449.6,154.6z"/>
	<path fill="#FFFFFF" d="M271.1,318.2c-8.6-0.9-9.6-6-9.8-11.7V237c0-10.2-3.6-21.9-12.2-29.1c-10.7-9-26.3-11.3-39.8-11.3
		c-17.5,0-31.3,2-45.6,6.9c-1.6,0.6-2,2.1-2,4.2c0,7.1-0.1,11-0.1,19.2c0,1.7,1.2,2.7,2.4,2.7c0,0,6.6,0,7.5,0
		c1.5,0,2.9-0.8,4.2-2.4c4.2-5.5,9.3-9.9,13.3-12.2c3.7-2.1,9.8-4.4,16-4.4c14.5,0,20.5,10.5,20.5,22.8v19.4
		c-54.6-3.2-77,12.9-77,38.6c0,29.4,20.3,41.7,40.2,41.7c18.1,0,31.6-6.9,39.2-17.4c1.6,9.2,7,15.5,14.2,15.5c3.5,0,14.6,0,28.5,0
		l4.7-13L271.1,318.2L271.1,318.2z M225.6,298.9c-5.5,7.2-14.6,13.4-24.3,13.4c-12.6,0-19.6-6.2-19.6-20.2c0-16.1,7.6-25,43.9-25
		V298.9L225.6,298.9z"/>
	<path fill="#FFFFFF" d="M638.9,318.1l-15,0.1c-2.3,0-3.5-1.4-3.5-3.5c0,0-0.1-105.1-0.1-108.2s-1.1-5.1-4.7-5.1
		c-3.6,0-46.2,0-46.2,0s-3.1,2.9-3.1,7.3c0,4.5,3.1,7.4,3.1,7.4s11.9,0.1,12.9,0.1s1.7,0.7,1.7,2s-0.1,96.2-0.1,96.2
		c0,2.1-1.9,3.7-3.4,3.7h-14.8c0,0-2.8,1.8-2.8,6.3c0,4.2,2.8,6.7,2.8,6.7H639c0,0,2.4-2.7,2.4-6.9
		C641.3,320.1,638.9,318.1,638.9,318.1z"/>
	<path fill="#FFFFFF" d="M70.6,218.3c-25.3-8.7-30.5-16-30.5-26.3c0-11.1,10.3-22.3,32.4-22.3c7.7,0,15.8,2.6,23.3,7.3
		c4.7,2.9,9.5,7.7,15,17.1c0.6,1,1.9,1.7,2.6,1.7c2.2,0,8,0,8,0c1.2-0.1,1.6-0.8,1.6-2.2c0-5.7,0.1-21,0.1-30c0-1.6-1-2.8-2.7-3.4
		c-15-5-29.6-7.3-49.3-7.3c-36.1,0-60.2,20.5-60.2,51.9c0,30.8,23.4,43.8,54,53.2c19.3,5.9,42.2,14,42.2,33
		c0,11.3-10.4,24.4-31.2,24.4c-16,0-26.5-5.6-32.6-12c-6.1-6.3-12-12.4-17.5-23.9c-0.6-1.5-1.6-2.9-2.9-2.9c-3.1,0-9.3,0-9.3,0
		c-1.3,0-2.3,1-2.3,2.8c0,7.3,0,26.8,0,35c0,1.4,0.8,3.4,2.2,4.2c17.9,10.5,41.5,14.5,61,14.4c34.6-0.2,61.5-23.2,61.5-60.1
		C135.9,233.3,99.6,228.3,70.6,218.3z"/>
	<path fill="#FFFFFF" d="M712.4,249.3c-26.5-6.4-31.9-11.1-31.9-20.4c0-7.9,6.9-16.3,20.7-16.3c13.7,0,26.5,8.1,32.4,17.6
		c0.8,1.3,1.9,1.9,3.6,1.9c2.2,0,5.3,0,6.5,0s1.8-1,1.8-1.7s0-16.1,0-22.9c0-1.5-0.6-3.1-2.5-3.7c-10.1-3-25.3-5-42.1-5
		c-22.4,0-46.7,12.8-46.7,40.4c0,23.6,19.1,36.4,35.5,40.9c27.9,7.5,35.9,11.5,35.9,23.4c0,10.3-8.1,16.5-22.1,16.5
		c-14.1,0-27.3-10.4-35.1-28.8c-1.2-1.9-2-2.6-3.3-2.6c-3.9-0.1-7.8,0-8.9,0c-1.1,0-2.3,0.6-2.3,2.4c0,6.7,0,25.4,0,27.1
		c0,2.1,2.9,4.4,2.9,4.4s8.1,5,17.1,8.1c7.5,2.6,16.7,4.6,29.7,4.6c32.9,0,48.6-20.4,48.6-44.2C752.2,269.2,740,255.9,712.4,249.3z"
		/>
	<path fill="#FFFFFF" d="M586.7,183.3h33c1.9,0,3.2-0.9,3.6-2.4l7.6-23.6c0.6-2-0.7-3-2.6-3h-34.6c-1.7,0-2.7,1.1-3.1,2.5l-6.4,21.8
		C583.4,181.2,584.6,183.3,586.7,183.3z"/>
	<path fill="#FFFFFF" d="M915.1,318.2c-7.8,0-13.9-2.4-17.3-7.6c-1.6-2.3-42.7-65.2-43.6-66.7c10.4-14.4,15.8-19.7,25-24.5
		c6.1-3.2,17.3-5.6,25.8-5.6c0.1,0,2-1.6,2-6.2s-2.1-6.4-2.1-6.4h-41.2c-1.5,0-3.6,1.2-5,3.2c-0.9,1.3-33.3,47.8-41.9,60.3
		c0-45.3,0-104.9,0-105.9c0-2.6-1.6-4.6-4.6-4.6c-3.1,0-51.6,0-51.6,0s-2.5,2-2.5,6.4s2.5,6.8,2.5,6.8s14.7,0,16.7,0s2.9,1,2.9,3.1
		s0,144.3,0,144.3c0,2.1-1,3.1-2.5,3.1h-15.9c0,0-2.6,2.3-2.6,6.4c0,4.1,2.6,6.8,2.6,6.8l69-0.1c0,0,1.9-2.9,1.9-6.8
		c0-3.9-1.9-6.3-1.9-6.3h-11.3c-1.4,0-2.7-1.2-2.7-3c0,0,0-13.9,0-33.5c3.2-3.4,9.1-9.4,9.8-10.2c2.1-2.1,4.3-1.3,5.5,0.5
		c1.4,2.2,27.6,42.4,28.2,43.5c1.2,2,0.5,2.9-1,2.9l-8.2,0.1c0,0-2,3-2,6.4s1.8,6.4,1.8,6.4l68.8,0.1c0,0,2.2-2.8,2.2-6.4
		c0-3.6-2.5-6.6-2.5-6.6S917.5,318.2,915.1,318.2z"/>
	<g>
		<path fill="#FFFFFF" d="M941.2,217c0-0.2,0-0.4,0-0.5V215c0-1.7-0.5-3-1.5-3.7c-0.6-0.4-1.4-0.7-2.4-0.9c1.2-0.1,2.1-0.5,2.9-1.1
			c0.8-0.7,1.2-1.7,1.2-3c0-1.9-0.8-3.2-2.3-4c-0.9-0.5-2-0.8-3.3-0.9c-0.3,0-1.4,0-3.4,0c-2.1,0-3.7,0-4.7,0V218h4.3v-6h0.9l1,0.1
			c0.7,0,1.2,0.1,1.5,0.3c0.6,0.3,1,0.6,1.2,1.2c0.1,0.4,0.3,1.1,0.3,2.1s0.2,1.8,0.3,2.3h4.2l-0.1-0.5
			C941.2,217.3,941.2,217.1,941.2,217z M936.2,208.5c-0.6,0.4-1.4,0.6-2.4,0.6h-1.7v-4.8h1.1c1.1,0,1.9,0.1,2.6,0.3
			c0.9,0.4,1.3,1,1.3,1.9C937,207.4,936.8,208.1,936.2,208.5z"/>
		<path fill="#FFFFFF" d="M944.9,199c-2.9-3-6.5-4.5-10.6-4.5c-4,0-7.4,1.4-10.3,4.1c-3.1,2.9-4.7,6.5-4.7,10.9
			c0,4.2,1.5,7.8,4.3,10.7c2.9,2.9,6.5,4.3,10.7,4.3c4.1,0,7.6-1.4,10.5-4.2c3-2.9,4.5-6.5,4.5-10.8
			C949.3,205.5,947.8,201.9,944.9,199z M943,218.5c-2.4,2.4-5.3,3.6-8.7,3.6s-6.3-1.2-8.7-3.6s-3.6-5.4-3.6-8.8s1.2-6.2,3.6-8.7
			c2.4-2.5,5.4-3.7,8.8-3.7c3.4,0,6.3,1.3,8.7,3.7c2.4,2.5,3.6,5.3,3.6,8.7C946.6,213.1,945.4,216,943,218.5z"/>
	</g>
</g>
</svg>
