<?xml version="1.0" encoding="utf-8"?>
<!-- Generator: Adobe Illustrator 18.1.0, SVG Export Plug-In . SVG Version: 6.00 Build 0)  -->
<!DOCTYPE svg PUBLIC "-//W3C//DTD SVG 1.1//EN" "http://www.w3.org/Graphics/SVG/1.1/DTD/svg11.dtd">
<svg version="1.1" id="Layer_1" xmlns="http://www.w3.org/2000/svg" xmlns:xlink="http://www.w3.org/1999/xlink" x="0px" y="0px"
	 viewBox="0 597.5 1600 310.8" enable-background="new 0 597.5 1600 310.8" xml:space="preserve">
<g>
	<path fill="#ED1C24" d="M748,600.4h-49.1c0,0-5.8,3.8-5.8,12.4c0,10.6,5.8,13,5.8,13h43.6c63.3,0,103,42.3,103,125.3
		c0,89.5-39.2,128.4-108.8,128.4h-28.1c-4.4,0-7.7-5.3-7.8-7.8c0-16.7-0.2-121.6-0.2-130.4c0-43.1-29.5-66.8-77.4-66.8
		c-32.2,0-55.2,14.5-68.2,39c0-8,0-22.8,0-27.1s-2.6-6.3-6.1-6.3s-81,0-81,0s-5.3,4.6-5.3,13c0,9,5.3,12.4,5.3,12.4s12.4,0,18.1,0
		c4.8,0,9.9,5.3,9.9,11.1c0,4.8,0,155.2,0,155.2c0,3.2-4.4,7.3-7.5,7.3h-17.4l-8,22.2c52.7,0,115.6,0.2,115.6,0.2s4.1-3.8,4.1-11.8
		c0-7.5-3.9-10.7-3.9-10.7H565c-4.1,0-7.2-3.4-7.2-6.8V751.3c11.4-30.9,33.4-49.1,51.7-49.1c17.2,0,28.1,13,28.1,32.4
		c0,10.1-0.2,118.2-0.2,135.9c0,4.9-3.6,8.5-6.8,8.5h-16.4c0,0-4.6,3.2-4.6,10.7c0,7.8,4.6,11.8,4.6,11.8h135.9
		c135.4,0,170.3-81.2,170.3-150.4C921.1,642.3,845.5,600.4,748,600.4z"/>
	<path fill="#ED1C24" d="M443.6,879.3c-14.7-1.5-16.4-10.2-16.7-19.9V740.9c0-17.4-6.1-37.3-20.8-49.6
		c-18.2-15.3-44.8-19.3-67.9-19.3c-29.8,0-53.4,3.4-77.7,11.8c-2.7,1-3.4,3.6-3.4,7.2c0,12.1-0.2,18.8-0.2,32.7c0,2.9,2,4.6,4.1,4.6
		c0,0,11.3,0,12.8,0c2.6,0,4.9-1.4,7.2-4.1c7.2-9.4,15.9-16.9,22.7-20.8c6.3-3.6,16.7-7.5,27.3-7.5c24.7,0,35,17.9,35,38.9v33.1
		c-93.1-5.5-131.3,22-131.3,65.8c0,50.1,34.6,71.1,68.5,71.1c30.9,0,53.9-11.8,66.8-29.7c2.7,15.7,11.9,26.4,24.2,26.4
		c6,0,24.9,0,48.6,0l8-22.2H443.6L443.6,879.3z M366.1,846.4c-9.4,12.3-24.9,22.8-41.4,22.8c-21.5,0-33.4-10.6-33.4-34.4
		c0-27.5,13-42.6,74.9-42.6V846.4L366.1,846.4z"/>
	<path fill="#ED1C24" d="M1070.8,879.2l-25.6,0.2c-3.9,0-6-2.4-6-6c0,0-0.2-179.2-0.2-184.5s-1.9-8.7-8-8.7c-6.1,0-78.8,0-78.8,0
		s-5.3,4.9-5.3,12.4c0,7.7,5.3,12.6,5.3,12.6s20.3,0.2,22,0.2c1.7,0,2.9,1.2,2.9,3.4s-0.2,164-0.2,164c0,3.6-3.2,6.3-5.8,6.3H946
		c0,0-4.8,3.1-4.8,10.7c0,7.2,4.8,11.4,4.8,11.4h125c0,0,4.1-4.6,4.1-11.8C1074.9,882.6,1070.8,879.2,1070.8,879.2z"/>
	<path fill="#ED1C24" d="M101.8,709c-43.1-14.8-52-27.3-52-44.8c0-18.9,17.6-38,55.2-38c13.1,0,26.9,4.4,39.7,12.4
		c8,4.9,16.2,13.1,25.6,29.2c1,1.7,3.2,2.9,4.4,2.9c3.8,0,13.6,0,13.6,0c2-0.2,2.7-1.4,2.7-3.8c0-9.7,0.2-35.8,0.2-51.2
		c0-2.7-1.7-4.8-4.6-5.8c-25.6-8.5-50.5-12.4-84.1-12.4C41.1,597.5,0,632.4,0,686c0,52.5,39.9,74.7,92.1,90.7
		c32.9,10.1,72,23.9,72,56.3c0,19.3-17.7,41.6-53.2,41.6c-27.3,0-45.2-9.5-55.6-20.5c-10.4-10.7-20.5-21.1-29.8-40.8
		c-1-2.6-2.7-4.9-4.9-4.9c-5.3,0-15.9,0-15.9,0c-2.2,0-3.9,1.7-3.9,4.8c0,12.4,0,45.7,0,59.7c0,2.4,1.4,5.8,3.8,7.2
		c30.5,17.9,70.8,24.7,104,24.6c59-0.3,104.9-39.6,104.9-102.5C213.1,734.6,151.2,726,101.8,709z"/>
	<path fill="#ED1C24" d="M1196.1,761.9c-45.2-10.9-54.4-18.9-54.4-34.8c0-13.5,11.8-27.8,35.3-27.8c23.4,0,45.2,13.8,55.2,30
		c1.4,2.2,3.2,3.2,6.1,3.2c3.8,0,9,0,11.1,0c2,0,3.1-1.7,3.1-2.9c0-1.2,0-27.5,0-39c0-2.6-1-5.3-4.3-6.3
		c-17.2-5.1-43.1-8.5-71.8-8.5c-38.2,0-79.6,21.8-79.6,68.9c0,40.2,32.6,62.1,60.5,69.7c47.6,12.8,61.2,19.6,61.2,39.9
		c0,17.6-13.8,28.1-37.7,28.1c-24,0-46.5-17.7-59.8-49.1c-2-3.2-3.4-4.4-5.6-4.4c-6.6-0.2-13.3,0-15.2,0c-1.9,0-3.9,1-3.9,4.1
		c0,11.4,0,43.3,0,46.2c0,3.6,4.9,7.5,4.9,7.5s13.8,8.5,29.2,13.8c12.8,4.4,28.5,7.8,50.6,7.8c56.1,0,82.9-34.8,82.9-75.4
		C1263.9,795.8,1243.1,773.1,1196.1,761.9z"/>
	<path fill="#ED1C24" d="M981.8,649.3h56.3c3.2,0,5.5-1.5,6.1-4.1l13-40.2c1-3.4-1.2-5.1-4.4-5.1h-59c-2.9,0-4.6,1.9-5.3,4.3
		l-10.9,37.2C976.1,645.7,978.2,649.3,981.8,649.3z"/>
	<path fill="#ED1C24" d="M1541.7,879.3c-13.3,0-23.7-4.1-29.5-13c-2.7-3.9-72.8-111.2-74.3-113.7c17.7-24.6,26.9-33.6,42.6-41.8
		c10.4-5.5,29.5-9.5,44-9.5c0.2,0,3.4-2.7,3.4-10.6s-3.6-10.9-3.6-10.9H1454c-2.6,0-6.1,2-8.5,5.5c-1.5,2.2-56.8,81.5-71.4,102.8
		c0-77.2,0-178.9,0-180.6c0-4.4-2.7-7.8-7.8-7.8c-5.3,0-88,0-88,0s-4.3,3.4-4.3,10.9s4.3,11.6,4.3,11.6s25.1,0,28.5,0
		c3.4,0,4.9,1.7,4.9,5.3s0,246,0,246c0,3.6-1.7,5.3-4.3,5.3h-27.1c0,0-4.4,3.9-4.4,10.9c0,7,4.4,11.6,4.4,11.6l117.6-0.2
		c0,0,3.2-4.9,3.2-11.6c0-6.6-3.2-10.7-3.2-10.7h-19.3c-2.4,0-4.6-2-4.6-5.1c0,0,0-23.7,0-57.1c5.5-5.8,15.5-16,16.7-17.4
		c3.6-3.6,7.3-2.2,9.4,0.9c2.4,3.8,47.1,72.3,48.1,74.2c2,3.4,0.9,4.9-1.7,4.9l-14,0.2c0,0-3.4,5.1-3.4,10.9
		c0,5.8,3.1,10.9,3.1,10.9l117.3,0.2c0,0,3.8-4.8,3.8-10.9s-4.3-11.3-4.3-11.3S1545.8,879.3,1541.7,879.3z"/>
	<g>
		<path fill="#ED1C24" d="M1586.2,706.8c0-0.3,0-0.7,0-0.9v-2.6c0-2.9-0.9-5.1-2.6-6.3c-1-0.7-2.4-1.2-4.1-1.5
			c2-0.2,3.6-0.9,4.9-1.9c1.4-1.2,2-2.9,2-5.1c0-3.2-1.4-5.5-3.9-6.8c-1.5-0.9-3.4-1.4-5.6-1.5c-0.5,0-2.4,0-5.8,0c-3.6,0-6.3,0-8,0
			v28.3h7.3v-10.2h1.5l1.7,0.2c1.2,0,2,0.2,2.6,0.5c1,0.5,1.7,1,2,2c0.2,0.7,0.5,1.9,0.5,3.6s0.3,3.1,0.5,3.9h7.2l-0.2-0.9
			C1586.2,707.3,1586.2,706.9,1586.2,706.8z M1577.7,692.3c-1,0.7-2.4,1-4.1,1h-2.9v-8.2h1.9c1.9,0,3.2,0.2,4.4,0.5
			c1.5,0.7,2.2,1.7,2.2,3.2C1579,690.4,1578.7,691.6,1577.7,692.3z"/>
		<path fill="#ED1C24" d="M1592.5,676.1c-4.9-5.1-11.1-7.7-18.1-7.7c-6.8,0-12.6,2.4-17.6,7c-5.3,4.9-8,11.1-8,18.6
			c0,7.2,2.6,13.3,7.3,18.2c4.9,4.9,11.1,7.3,18.2,7.3c7,0,13-2.4,17.9-7.2c5.1-4.9,7.7-11.1,7.7-18.4
			C1600,687.2,1597.4,681,1592.5,676.1z M1589.3,709.3c-4.1,4.1-9,6.1-14.8,6.1s-10.7-2-14.8-6.1c-4.1-4.1-6.1-9.2-6.1-15
			c0-5.8,2-10.6,6.1-14.8c4.1-4.3,9.2-6.3,15-6.3c5.8,0,10.7,2.2,14.8,6.3c4.1,4.3,6.1,9,6.1,14.8
			C1595.4,700.1,1593.4,705.1,1589.3,709.3z"/>
	</g>
</g>
</svg>
