<?xml version="1.0" encoding="utf-8"?>
<!-- Generator: Adobe Illustrator 19.1.0, SVG Export Plug-In . SVG Version: 6.00 Build 0)  -->
<svg version="1.1" id="Layer_1" xmlns="http://www.w3.org/2000/svg" xmlns:xlink="http://www.w3.org/1999/xlink" x="0px" y="0px"
	 width="275.8px" height="59.8px" viewBox="0 0 275.8 59.8" style="enable-background:new 0 0 275.8 59.8;" xml:space="preserve">
<style type="text/css">
	.st0{fill:#0067A6;}
	.st1{fill:#FFFFFF;}
	.st2{fill:#231F20;}
</style>
<g>
	<path class="st0" d="M128.5,52.1c0,3.4-2.8,6.2-6.2,6.2H35.1c-3.4,0-6.2-2.8-6.2-6.2V6.2c0-3.4,2.8-6.2,6.2-6.2h87.3
		c3.4,0,6.2,2.8,6.2,6.2V52.1z"/>
	<g>
		<g>
			<polygon class="st1" points="84,20.1 86.2,13.5 77.3,13.5 75.2,20.1 			"/>
			<polygon class="st1" points="69.6,20.1 68.9,13.5 62,13.5 58.5,20.1 			"/>
			<polygon class="st1" points="74.4,22.7 71,33.3 69.8,22.6 57.5,22.1 51.9,32.6 53.5,22 44.9,21.7 42.4,44.2 54.2,44.2 63.2,25.9 
				65.1,44.2 75.7,44.2 83,23 			"/>
			<polygon class="st1" points="53.8,20.1 54.8,13.4 45.8,13.4 45.1,20.1 			"/>
		</g>
		<path class="st1" d="M105.5,13.5H88.5l-2.2,6.6l15.3,0c4.2,0.1,6.3,3.6,4.9,7.8c-1.4,4.3-5.7,7.6-10.5,7.8
			c-1.2,0.1-1.7,0.2-3.4,0.1l4.2-12.3l-11.4-0.4l-7,21.1h16.9c8.5,0,17.8-6.7,20.7-15.3C118.8,20.2,114,13.5,105.5,13.5z"/>
	</g>
	<path class="st2" d="M148.1,4.8h5.4l3.9,16.7h0.1L161,4.8h4.6l-5.7,22.2h-5.3l-4-16.9h-0.1l-4.3,16.9h-5.4l-5.4-22.2h4.9l3.4,16.7
		h0.1L148.1,4.8z"/>
	<path class="st2" d="M169,20.6c0,2,0.3,3.9,2.6,3.9c1.6,0,2.4-0.6,2.8-2h4.2c-0.4,3.8-3.4,5.1-7,5.1c-5.3,0-7.4-3-7.4-8.2
		c0-4.6,2.7-8.2,7.4-8.2c2.9,0,5.3,1,6.6,3.7c0.4,0.9,0.6,1.8,0.8,2.8c0.1,1,0.1,1.9,0.1,3H169z M174.4,17.5c0-1.7-0.5-3.3-2.7-3.3
		c-2.1,0-2.6,1.6-2.6,3.3H174.4z"/>
	<path class="st2" d="M189.2,15.7c-0.1-1-1-1.5-2.1-1.5c-1.3,0-1.8,0.4-1.8,1.4c0,2.4,8.8,1,8.8,6.8c0,3.4-4.1,5.1-7,5.1
		c-3.6,0-6.7-1.4-6.8-5h4.3c0.1,1.2,1.2,1.9,2.5,1.9c1.3,0,2.2-0.5,2.2-1.7c0-1.2-2.2-1.8-3.1-2c-3-0.7-5.7-1.4-5.7-5
		c0-3.2,3.9-4.6,6.6-4.6c3.3,0,6,1.2,6.3,4.6H189.2z"/>
	<path class="st2" d="M196.1,11.6v-3l4.6-1.7v4.7h3.5v3.1h-3.5v7.2c0,2,0.3,2.6,1.9,2.6c0.5,0,1-0.1,1.5-0.1v2.7
		c-0.5,0.2-3,0.5-3.6,0.5c-3.6,0-4.4-1.9-4.4-5.2v-7.6h-1.7v-3.1H196.1z"/>
	<path class="st2" d="M209.4,20.6c0,2,0.3,3.9,2.6,3.9c1.6,0,2.4-0.6,2.8-2h4.2c-0.4,3.8-3.4,5.1-7,5.1c-5.3,0-7.4-3-7.4-8.2
		c0-4.6,2.7-8.2,7.4-8.2c2.9,0,5.3,1,6.6,3.7c0.4,0.9,0.6,1.8,0.8,2.8c0.1,1,0.1,1.9,0.1,3H209.4z M214.8,17.5
		c0-1.7-0.5-3.3-2.7-3.3c-2.1,0-2.6,1.6-2.6,3.3H214.8z"/>
	<path class="st2" d="M229,15.5c-0.8,0.1-1.8,0.5-2.2,1.1c-0.5,0.9-0.6,1.7-0.6,2.7v7.7h-4.6l0-12.4c0-0.6-0.1-1.9-0.2-3.1h4.2
		l0.1,2.8h0.1c1-2.4,3-3,5.3-3L229,15.5z"/>
	<path class="st2" d="M236.8,13.4L236.8,13.4c1-1.3,2.5-2.2,4.8-2.2c1.5,0,4.5,1.1,5.1,3.4c0.2,1,0.3,1.9,0.3,2.5v10.1h-4.6v-9.3
		c0-1.7-0.5-3.5-2.8-3.5c-1.4,0-2.7,1.3-2.8,3.5v9.3h-4.6V11.6h4.6V13.4z"/>
	<path class="st2" d="M137.1,31.5h7.6c6.9-0.1,11.2,3.4,11.2,11.1s-4.3,11.2-11.2,11.1h-7.6V31.5z M141.8,50h2.5
		c5.7,0.1,6.5-3.9,6.5-7.4c0-3.5-0.8-7.5-6.5-7.4h-2.5V50z"/>
	<path class="st2" d="M162.7,31.5v4h-4.9v-4H162.7z M162.6,38.3v15.4H158V38.3H162.6z"/>
	<path class="st2" d="M179.9,52.3c0,3.6-0.8,7.5-7.6,7.5c-3.4,0-7.1-0.8-7.2-5h4.4c0.1,1.4,1.3,1.9,2.6,1.9c3.5,0,3.4-3.2,3.2-5.4
		h-0.1c-1,1.5-2.6,2.1-4.3,2.1c-4.2,0-6.3-3.9-6.3-7.7c0-3.9,2.2-7.9,6.6-7.9c2.1,0,3.4,0.7,4.1,2.2h0.1v-1.8h4.6V52.3z M172.3,50.3
		c2.5,0,3-2.6,3-4.6c0-2.3-0.5-4.9-3-4.9c-2.5,0-3,2.6-3,4.9C169.3,47.7,169.8,50.3,172.3,50.3z"/>
	<path class="st2" d="M187.4,31.5v4h-4.9v-4H187.4z M187.3,38.3v15.4h-4.6V38.3H187.3z"/>
	<path class="st2" d="M190.6,38.3v-3l4.6-1.7v4.7h3.5v3.1h-3.5v7.2c0,2,0.3,2.6,1.9,2.6c0.5,0,1-0.1,1.5-0.1v2.7
		c-0.5,0.2-3,0.5-3.6,0.5c-3.6,0-4.4-1.9-4.4-5.2v-7.6h-1.8v-3.1H190.6z"/>
	<path class="st2" d="M200.5,42.6c0-1.9,0.9-3.1,2.1-3.8c1.3-0.7,2.9-1,4.6-1c3.1,0,6.6,1.1,6.6,5.8V52c0,0.8,0.2,1.2,0.2,1.7h-4.2
		c-0.1-0.7-0.2-1.4-0.2-2.1h-0.1c-1,1.8-2.6,2.5-4.7,2.5c-2.9,0-5-1.7-5-4.7c0-1.1,0.5-3.7,3.3-4.9c1.8-0.8,4.2-0.9,6-0.8v-1.4
		c0-0.6-0.5-1.9-2.1-1.9c-1.6,0-2.1,1.5-2.1,2.2H200.5z M204.2,48.9c0,1.3,1,2.2,2.2,2.2c2.6,0,2.6-2.8,2.6-4.6
		C207.5,46.4,204.2,46.4,204.2,48.9z"/>
	<path class="st2" d="M221.2,31.5v22.2h-4.6V31.5H221.2z"/>
	<path d="M223.6,34.1c0-1.8,1.5-3.3,3.4-3.3c1.9,0,3.3,1.5,3.3,3.3c0,1.9-1.5,3.4-3.3,3.4C225.1,37.5,223.6,36,223.6,34.1z
		 M229.7,34.1c0-1.5-1.2-2.8-2.8-2.8c-1.5,0-2.8,1.2-2.8,2.8c0,1.5,1.2,2.8,2.8,2.8C228.5,36.9,229.7,35.6,229.7,34.1z M226.2,34.3
		V36h-0.6v-3.9h1.3c0.7,0,1.5,0.2,1.5,1.1c0,0.5-0.3,0.8-0.8,0.9v0c0.5,0.1,0.6,0.3,0.7,0.8c0.1,0.4,0.1,0.8,0.2,1.1h-0.8
		c0-0.2-0.1-0.5-0.1-0.7c0-0.3,0-0.7-0.2-0.8c-0.2-0.2-0.4-0.1-0.6-0.2H226.2z M226.9,33.7c0.6,0,0.7-0.3,0.7-0.6
		c0-0.3-0.1-0.4-0.6-0.4h-0.7v1H226.9z"/>
</g>
</svg>
